<?xml version="1.0" standalone="no"?>
<!DOCTYPE svg PUBLIC "-//W3C//DTD SVG 20010904//EN"
 "http://www.w3.org/TR/2001/REC-SVG-20010904/DTD/svg10.dtd">
<svg version="1.0" xmlns="http://www.w3.org/2000/svg"
 width="260.000000pt" height="260.000000pt" viewBox="0 0 260.000000 260.000000"
 preserveAspectRatio="xMidYMid meet">
<metadata>
Created by potrace 1.11, written by Peter Selinger 2001-2013
</metadata>
<g transform="translate(0.000000,260.000000) scale(0.100000,-0.100000)"
fill="#000000" stroke="none">
<path d="M1160 2523 c-141 -29 -261 -93 -365 -197 -83 -82 -143 -178 -181
-291 -24 -70 -27 -96 -28 -205 0 -144 18 -230 102 -486 47 -140 171 -465 222
-579 12 -27 26 -59 31 -70 149 -339 320 -645 360 -645 47 0 236 351 404 750
105 249 98 233 138 341 148 397 197 619 172 784 -25 166 -121 335 -252 445
-164 137 -397 196 -603 153z"/>
</g>
</svg>
